STARTFONT 2.1
COMMENT Copyright (C) 1990-1991 EWT Consulting
COMMENT Portions Copyright (C) 1994-1995 Cronyx Ltd.
COMMENT Changes Copyright (C) 1996-1997 by Andrey A. Chernov, Moscow, Russia.
COMMENT Modified by Serge Vakulenko, <vak@cronyx.ru>
COMMENT Changes 1999 by Serge Winitzki.
COMMENT This software may be used, modified, copied, distributed, and sold,
COMMENT in both source and binary form provided that the copyright
COMMENT and these terms are retained. Under no circumstances is the author
COMMENT responsible for the proper functioning of this software, nor does
COMMENT the author assume any responsibility for damages incurred with its use.
COMMENT $XFree86$
FONT -Cronyx-Times-Bold-R-Normal--20-140-100-100-P-74-KOI8-R
SIZE 14 96 96
FONTBOUNDINGBOX 18 20 0 -4
STARTPROPERTIES 21
DEFAULT_CHAR 32
FONT_ASCENT 16
FONT_DESCENT 5
SPACING "P"
FONTNAME_REGISTRY ""
FOUNDRY "Cronyx"
FAMILY_NAME "Times"
WEIGHT_NAME "Bold"
SLANT "R"
SETWIDTH_NAME "Normal"
ADD_STYLE_NAME ""
AVERAGE_WIDTH 74
CHARSET_REGISTRY "KOI8"
CHARSET_ENCODING "R"
PIXEL_SIZE 20
POINT_SIZE 140
RESOLUTION_X 100
RESOLUTION_Y 100
COPYRIGHT "Copyright (C) 1990, 1991 EWT Consulting, Portions Copyright (C) 1994 Cronyx Ltd., Portions Copyright (C) 1996-1997 by Andrey A. Chernov, Moscow, Russia."
_XMBDFED_INFO "Edited with xmbdfed 3.8."
_XFREE86_GLYPH_RANGES "32_126 149 154 156_158 163 179 191_255"
ENDPROPERTIES
CHARS 167
STARTCHAR space
ENCODING 32
SWIDTH 263 0
DWIDTH 5 0
BBX 0 0 0 0
BITMAP
ENDCHAR
STARTCHAR exclam
ENCODING 33
SWIDTH 385 0
DWIDTH 5 0
BBX 3 13 1 0
BITMAP
E0
E0
E0
E0
E0
E0
E0
E0
E0
00
00
E0
E0
ENDCHAR
STARTCHAR quotedbl
ENCODING 34
SWIDTH 2250 0
DWIDTH 9 0
BBX 7 4 1 9
BITMAP
EE
EE
EE
EE
ENDCHAR
STARTCHAR numbersign
ENCODING 35
SWIDTH 714 0
DWIDTH 10 0
BBX 10 14 0 0
BITMAP
1F80
1F80
1F80
1F80
7FC0
3F00
3F00
3F00
3F00
FF80
7E00
7E00
7E00
7E00
ENDCHAR
STARTCHAR dollar
ENCODING 36
SWIDTH 588 0
DWIDTH 10 0
BBX 8 17 1 -2
BITMAP
18
18
3E
7F
FB
FB
F8
7C
3E
1E
1F
DF
DF
FE
7C
18
18
ENDCHAR
STARTCHAR percent
ENCODING 37
SWIDTH 1231 0
DWIDTH 16 0
BBX 14 13 1 0
BITMAP
3C38
7FF0
E6E0
E6E0
EDC0
7B80
0380
0778
0EEC
0FCC
1DCC
39D8
38F0
ENDCHAR
STARTCHAR ampersand
ENCODING 38
SWIDTH 1154 0
DWIDTH 15 0
BBX 14 13 1 0
BITMAP
1F00
3B80
3980
3B80
1F00
1E78
3E30
7730
E3E0
E1C0
E1C0
73EC
3F78
ENDCHAR
STARTCHAR quotesingle
ENCODING 39
SWIDTH 1250 0
DWIDTH 5 0
BBX 3 4 1 9
BITMAP
E0
E0
E0
E0
ENDCHAR
STARTCHAR parenleft
ENCODING 40
SWIDTH 368 0
DWIDTH 7 0
BBX 5 19 1 -4
BITMAP
18
38
30
70
70
60
E0
E0
E0
E0
E0
E0
E0
60
70
70
30
38
18
ENDCHAR
STARTCHAR parenright
ENCODING 41
SWIDTH 368 0
DWIDTH 7 0
BBX 5 19 1 -4
BITMAP
C0
E0
60
70
70
30
38
38
38
38
38
38
38
30
70
70
60
E0
C0
ENDCHAR
STARTCHAR asterisk
ENCODING 42
SWIDTH 1429 0
DWIDTH 10 0
BBX 6 7 2 7
BITMAP
30
FC
FC
78
FC
FC
30
ENDCHAR
STARTCHAR plus
ENCODING 43
SWIDTH 1375 0
DWIDTH 11 0
BBX 9 8 1 3
BITMAP
1C00
1C00
1C00
FF80
FF80
1C00
1C00
1C00
ENDCHAR
STARTCHAR comma
ENCODING 44
SWIDTH 1000 0
DWIDTH 5 0
BBX 3 5 1 -3
BITMAP
E0
E0
60
60
C0
ENDCHAR
STARTCHAR hyphen
ENCODING 45
SWIDTH 4000 0
DWIDTH 8 0
BBX 7 2 1 6
BITMAP
FE
FE
ENDCHAR
STARTCHAR period
ENCODING 46
SWIDTH 2500 0
DWIDTH 5 0
BBX 3 2 1 0
BITMAP
E0
E0
ENDCHAR
STARTCHAR slash
ENCODING 47
SWIDTH 375 0
DWIDTH 6 0
BBX 6 16 0 -2
BITMAP
1C
1C
1C
1C
38
38
38
38
70
70
70
70
E0
E0
E0
E0
ENDCHAR
STARTCHAR zero
ENCODING 48
SWIDTH 769 0
DWIDTH 10 0
BBX 8 13 1 0
BITMAP
3C
7E
E7
E7
E7
E7
E7
E7
E7
E7
E7
7E
3C
ENDCHAR
STARTCHAR one
ENCODING 49
SWIDTH 769 0
DWIDTH 10 0
BBX 7 13 2 0
BITMAP
18
38
F8
38
38
38
38
38
38
38
38
38
FE
ENDCHAR
STARTCHAR two
ENCODING 50
SWIDTH 769 0
DWIDTH 10 0
BBX 8 13 1 0
BITMAP
3C
7E
CF
07
07
0E
0C
1C
38
30
63
FF
FE
ENDCHAR
STARTCHAR three
ENCODING 51
SWIDTH 769 0
DWIDTH 10 0
BBX 8 13 1 0
BITMAP
3C
6E
C7
07
06
0C
3E
0F
07
07
07
EE
7C
ENDCHAR
STARTCHAR four
ENCODING 52
SWIDTH 769 0
DWIDTH 10 0
BBX 8 13 1 0
BITMAP
0E
0E
1E
1E
3E
3E
6E
6E
FF
FF
0E
0E
0E
ENDCHAR
STARTCHAR five
ENCODING 53
SWIDTH 769 0
DWIDTH 10 0
BBX 8 13 1 0
BITMAP
3F
3F
60
60
FC
FE
0F
07
07
07
07
EE
7C
ENDCHAR
STARTCHAR six
ENCODING 54
SWIDTH 769 0
DWIDTH 10 0
BBX 8 13 1 0
BITMAP
1E
38
70
70
E0
FC
FE
E7
E7
E7
E7
7E
3C
ENDCHAR
STARTCHAR seven
ENCODING 55
SWIDTH 769 0
DWIDTH 10 0
BBX 8 13 1 0
BITMAP
7F
7F
CE
0E
1C
1C
1C
38
38
38
70
70
70
ENDCHAR
STARTCHAR eight
ENCODING 56
SWIDTH 769 0
DWIDTH 10 0
BBX 8 13 1 0
BITMAP
3C
7E
E7
E7
F6
7C
3E
6F
E7
E7
E7
7E
3C
ENDCHAR
STARTCHAR nine
ENCODING 57
SWIDTH 769 0
DWIDTH 10 0
BBX 8 13 1 0
BITMAP
3C
7E
E7
E7
E7
E7
7F
3F
07
06
0E
1C
78
ENDCHAR
STARTCHAR colon
ENCODING 58
SWIDTH 667 0
DWIDTH 6 0
BBX 3 9 1 0
BITMAP
E0
E0
00
00
00
00
00
E0
E0
ENDCHAR
STARTCHAR semicolon
ENCODING 59
SWIDTH 500 0
DWIDTH 6 0
BBX 3 12 1 -3
BITMAP
E0
E0
00
00
00
00
00
E0
E0
60
60
C0
ENDCHAR
STARTCHAR less
ENCODING 60
SWIDTH 1222 0
DWIDTH 11 0
BBX 9 9 1 2
BITMAP
0380
0F00
1E00
7800
F000
7800
1E00
0F00
0380
ENDCHAR
STARTCHAR equal
ENCODING 61
SWIDTH 1833 0
DWIDTH 11 0
BBX 9 6 1 3
BITMAP
FF80
FF80
0000
0000
FF80
FF80
ENDCHAR
STARTCHAR greater
ENCODING 62
SWIDTH 1222 0
DWIDTH 11 0
BBX 9 9 1 2
BITMAP
E000
7800
3C00
0F00
0780
0F00
3C00
7800
E000
ENDCHAR
STARTCHAR question
ENCODING 63
SWIDTH 692 0
DWIDTH 9 0
BBX 7 13 1 0
BITMAP
7C
CE
EE
EE
0E
1C
1C
38
30
30
00
38
38
ENDCHAR
STARTCHAR at
ENCODING 64
SWIDTH 1200 0
DWIDTH 18 0
BBX 16 15 1 -2
BITMAP
07E0
1E78
381C
700E
73FE
E7F7
EE77
EE67
EEE7
E7FE
73BC
7000
3800
1E38
07E0
ENDCHAR
STARTCHAR A
ENCODING 65
SWIDTH 1000 0
DWIDTH 13 0
BBX 13 13 0 0
BITMAP
0600
0700
0F00
0F80
0F80
1B80
19C0
31C0
3FE0
30E0
60E0
6070
F0F8
ENDCHAR
STARTCHAR B
ENCODING 66
SWIDTH 1077 0
DWIDTH 14 0
BBX 12 13 1 0
BITMAP
FF00
71C0
70E0
70E0
70E0
71C0
7FC0
70E0
7070
7070
7070
70E0
FF80
ENDCHAR
STARTCHAR C
ENCODING 67
SWIDTH 1000 0
DWIDTH 13 0
BBX 12 13 1 0
BITMAP
0FE0
3CE0
7060
7000
E000
E000
E000
E000
E000
7000
7030
3CE0
0F80
ENDCHAR
STARTCHAR D
ENCODING 68
SWIDTH 1154 0
DWIDTH 15 0
BBX 13 13 1 0
BITMAP
FF80
70E0
7070
7070
7038
7038
7038
7038
7038
7070
7070
70E0
FF80
ENDCHAR
STARTCHAR E
ENCODING 69
SWIDTH 923 0
DWIDTH 12 0
BBX 11 13 1 0
BITMAP
FFC0
70C0
7000
7000
7000
7180
7F80
7180
7000
7000
7000
7060
FFC0
ENDCHAR
STARTCHAR F
ENCODING 70
SWIDTH 923 0
DWIDTH 12 0
BBX 10 13 1 0
BITMAP
FFC0
70C0
7000
7000
7000
7180
7F80
7180
7000
7000
7000
7000
F800
ENDCHAR
STARTCHAR G
ENCODING 71
SWIDTH 1154 0
DWIDTH 15 0
BBX 13 13 1 0
BITMAP
0FE0
3CE0
7060
7000
E000
E000
E000
E0F8
E070
7070
7070
3CF0
0FC0
ENDCHAR
STARTCHAR H
ENCODING 72
SWIDTH 1154 0
DWIDTH 15 0
BBX 13 13 1 0
BITMAP
F8F8
7070
7070
7070
7070
7070
7FF0
7070
7070
7070
7070
7070
F8F8
ENDCHAR
STARTCHAR I
ENCODING 73
SWIDTH 538 0
DWIDTH 7 0
BBX 5 13 1 0
BITMAP
F8
70
70
70
70
70
70
70
70
70
70
70
F8
ENDCHAR
STARTCHAR J
ENCODING 74
SWIDTH 692 0
DWIDTH 9 0
BBX 7 13 1 0
BITMAP
3E
1C
1C
1C
1C
1C
1C
1C
1C
1C
FC
FC
78
ENDCHAR
STARTCHAR K
ENCODING 75
SWIDTH 1077 0
DWIDTH 14 0
BBX 13 13 1 0
BITMAP
FBF0
71C0
7380
7700
7E00
7E00
7F00
7780
7380
71C0
71E0
70E0
FBF8
ENDCHAR
STARTCHAR L
ENCODING 76
SWIDTH 923 0
DWIDTH 12 0
BBX 11 13 1 0
BITMAP
F800
7000
7000
7000
7000
7000
7000
7000
7000
7000
7000
7060
FFC0
ENDCHAR
STARTCHAR M
ENCODING 77
SWIDTH 1308 0
DWIDTH 17 0
BBX 15 13 1 0
BITMAP
F83E
783C
7C7C
7C7C
7C7C
6EDC
6EDC
6EDC
679C
679C
679C
631C
F33E
ENDCHAR
STARTCHAR N
ENCODING 78
SWIDTH 1154 0
DWIDTH 15 0
BBX 13 13 1 0
BITMAP
F878
7830
7C30
7E30
6F30
6730
67B0
63F0
61F0
60F0
60F0
6070
F030
ENDCHAR
STARTCHAR O
ENCODING 79
SWIDTH 1154 0
DWIDTH 15 0
BBX 13 13 1 0
BITMAP
0F80
38E0
7070
7070
E038
E038
E038
E038
E038
7070
7070
38E0
0F80
ENDCHAR
STARTCHAR P
ENCODING 80
SWIDTH 923 0
DWIDTH 12 0
BBX 11 13 1 0
BITMAP
FF00
71C0
70E0
70E0
70E0
71C0
7F00
7000
7000
7000
7000
7000
F800
ENDCHAR
STARTCHAR Q
ENCODING 81
SWIDTH 938 0
DWIDTH 15 0
BBX 13 16 1 -3
BITMAP
0F80
38E0
7070
7070
E038
E038
E038
E038
E038
7070
7070
38E0
0F80
0780
01C0
0070
ENDCHAR
STARTCHAR R
ENCODING 82
SWIDTH 1000 0
DWIDTH 13 0
BBX 12 13 1 0
BITMAP
FF80
71C0
70E0
70E0
70E0
71C0
7F80
7380
71C0
71C0
70E0
70E0
F870
ENDCHAR
STARTCHAR S
ENCODING 83
SWIDTH 846 0
DWIDTH 11 0
BBX 9 13 1 0
BITMAP
3F00
7700
E300
E300
F000
7800
3E00
0F00
0780
C380
C380
E700
FE00
ENDCHAR
STARTCHAR T
ENCODING 84
SWIDTH 1000 0
DWIDTH 13 0
BBX 11 13 1 0
BITMAP
FFE0
CE60
0E00
0E00
0E00
0E00
0E00
0E00
0E00
0E00
0E00
0E00
1F00
ENDCHAR
STARTCHAR U
ENCODING 85
SWIDTH 1154 0
DWIDTH 15 0
BBX 13 13 1 0
BITMAP
F878
7030
7030
7030
7030
7030
7030
7030
7030
7030
3860
3CE0
0F80
ENDCHAR
STARTCHAR V
ENCODING 86
SWIDTH 1000 0
DWIDTH 13 0
BBX 13 13 0 0
BITMAP
F8F8
7070
7060
3860
38C0
38C0
1D80
1D80
0F00
0F00
0F00
0600
0600
ENDCHAR
STARTCHAR W
ENCODING 87
SWIDTH 1385 0
DWIDTH 18 0
BBX 18 13 0 0
BITMAP
FBE3C0
71C180
71C180
38E300
38E300
38E300
1DF600
1DF600
0F3C00
0F3C00
0F3C00
061800
061800
ENDCHAR
STARTCHAR X
ENCODING 88
SWIDTH 1000 0
DWIDTH 13 0
BBX 13 13 0 0
BITMAP
FCF8
3870
1C60
1EC0
0F80
0780
0780
0F80
0DC0
19E0
30E0
7070
F8F8
ENDCHAR
STARTCHAR Y
ENCODING 89
SWIDTH 1000 0
DWIDTH 13 0
BBX 13 13 0 0
BITMAP
F878
7030
3860
3860
1CC0
0F80
0F80
0700
0700
0700
0700
0700
0F80
ENDCHAR
STARTCHAR Z
ENCODING 90
SWIDTH 1000 0
DWIDTH 13 0
BBX 12 13 1 0
BITMAP
7FE0
61C0
01C0
0380
0780
0700
0E00
1E00
1C00
3800
7800
7030
FFE0
ENDCHAR
STARTCHAR bracketleft
ENCODING 91
SWIDTH 412 0
DWIDTH 7 0
BBX 5 17 2 -3
BITMAP
F8
E0
E0
E0
E0
E0
E0
E0
E0
E0
E0
E0
E0
E0
E0
E0
F8
ENDCHAR
STARTCHAR backslash
ENCODING 92
SWIDTH 462 0
DWIDTH 6 0
BBX 6 13 0 0
BITMAP
E0
E0
E0
70
70
70
38
38
38
1C
1C
1C
1C
ENDCHAR
STARTCHAR bracketright
ENCODING 93
SWIDTH 412 0
DWIDTH 7 0
BBX 5 17 0 -3
BITMAP
F8
38
38
38
38
38
38
38
38
38
38
38
38
38
38
38
F8
ENDCHAR
STARTCHAR asciicircum
ENCODING 94
SWIDTH 2500 0
DWIDTH 10 0
BBX 8 4 1 10
BITMAP
18
3C
7E
E7
ENDCHAR
STARTCHAR underscore
ENCODING 95
SWIDTH 10000 0
DWIDTH 10 0
BBX 10 1 0 -2
BITMAP
FFC0
ENDCHAR
STARTCHAR grave
ENCODING 96
SWIDTH 2333 0
DWIDTH 7 0
BBX 5 3 1 11
BITMAP
E0
70
18
ENDCHAR
STARTCHAR a
ENCODING 97
SWIDTH 1111 0
DWIDTH 10 0
BBX 9 9 1 0
BITMAP
3E00
E700
E700
1F00
7700
E700
E700
FF00
7F80
ENDCHAR
STARTCHAR b
ENCODING 98
SWIDTH 786 0
DWIDTH 11 0
BBX 10 14 1 0
BITMAP
3000
F000
7000
7000
7000
7F00
7B80
71C0
71C0
71C0
71C0
71C0
7380
3F00
ENDCHAR
STARTCHAR c
ENCODING 99
SWIDTH 1000 0
DWIDTH 9 0
BBX 8 9 1 0
BITMAP
3E
77
E7
E0
E0
E0
E3
77
3E
ENDCHAR
STARTCHAR d
ENCODING 100
SWIDTH 786 0
DWIDTH 11 0
BBX 10 14 1 0
BITMAP
0180
0780
0380
0380
0380
3F80
7780
E380
E380
E380
E380
E380
7780
3FC0
ENDCHAR
STARTCHAR e
ENCODING 101
SWIDTH 1000 0
DWIDTH 9 0
BBX 8 9 1 0
BITMAP
3C
7E
E7
FF
E0
E0
E3
77
3E
ENDCHAR
STARTCHAR f
ENCODING 102
SWIDTH 500 0
DWIDTH 7 0
BBX 6 14 1 0
BITMAP
3C
7C
70
70
FC
70
70
70
70
70
70
70
70
F8
ENDCHAR
STARTCHAR g
ENCODING 103
SWIDTH 846 0
DWIDTH 11 0
BBX 10 13 1 -4
BITMAP
1E00
3FC0
7380
7380
3F00
1E00
3800
7000
7F80
E3C0
E1C0
E380
7F00
ENDCHAR
STARTCHAR h
ENCODING 104
SWIDTH 786 0
DWIDTH 11 0
BBX 10 14 1 0
BITMAP
3000
F000
7000
7000
7000
7F00
7B80
7380
7380
7380
7380
7380
7380
FBC0
ENDCHAR
STARTCHAR i
ENCODING 105
SWIDTH 429 0
DWIDTH 6 0
BBX 5 14 1 0
BITMAP
70
70
00
00
00
70
F0
70
70
70
70
70
70
F8
ENDCHAR
STARTCHAR j
ENCODING 106
SWIDTH 278 0
DWIDTH 5 0
BBX 5 18 0 -4
BITMAP
38
38
00
00
00
38
78
38
38
38
38
38
38
38
38
38
F8
70
ENDCHAR
STARTCHAR k
ENCODING 107
SWIDTH 714 0
DWIDTH 10 0
BBX 9 14 1 0
BITMAP
3000
F000
7000
7000
7000
7F80
7600
7C00
7800
7C00
7E00
7E00
7700
FF80
ENDCHAR
STARTCHAR l
ENCODING 108
SWIDTH 429 0
DWIDTH 6 0
BBX 5 14 1 0
BITMAP
30
F0
70
70
70
70
70
70
70
70
70
70
70
F8
ENDCHAR
STARTCHAR m
ENCODING 109
SWIDTH 1556 0
DWIDTH 14 0
BBX 13 9 1 0
BITMAP
3EE0
FFF0
7770
7770
7770
7770
7770
7770
FFF8
ENDCHAR
STARTCHAR n
ENCODING 110
SWIDTH 1222 0
DWIDTH 11 0
BBX 10 9 1 0
BITMAP
7F00
FB80
7380
7380
7380
7380
7380
7380
FBC0
ENDCHAR
STARTCHAR o
ENCODING 111
SWIDTH 1111 0
DWIDTH 10 0
BBX 9 9 1 0
BITMAP
3E00
6700
E380
E380
E380
E380
E380
7300
3E00
ENDCHAR
STARTCHAR p
ENCODING 112
SWIDTH 923 0
DWIDTH 12 0
BBX 10 13 1 -4
BITMAP
7F00
FB80
71C0
71C0
71C0
71C0
71C0
7B80
7F00
7000
7000
7000
F800
ENDCHAR
STARTCHAR q
ENCODING 113
SWIDTH 846 0
DWIDTH 11 0
BBX 10 13 1 -4
BITMAP
3F80
7780
E380
E380
E380
E380
E380
7780
3F80
0380
0380
0380
07C0
ENDCHAR
STARTCHAR r
ENCODING 114
SWIDTH 889 0
DWIDTH 8 0
BBX 7 9 1 0
BITMAP
7E
FE
76
70
70
70
70
70
F8
ENDCHAR
STARTCHAR s
ENCODING 115
SWIDTH 889 0
DWIDTH 8 0
BBX 7 9 1 0
BITMAP
7E
EE
E6
70
38
1C
CE
EE
FC
ENDCHAR
STARTCHAR t
ENCODING 116
SWIDTH 583 0
DWIDTH 7 0
BBX 6 12 1 0
BITMAP
30
30
70
FC
70
70
70
70
70
70
7C
38
ENDCHAR
STARTCHAR u
ENCODING 117
SWIDTH 1222 0
DWIDTH 11 0
BBX 10 9 1 0
BITMAP
F780
7380
7380
7380
7380
7380
7380
7780
3FC0
ENDCHAR
STARTCHAR v
ENCODING 118
SWIDTH 1222 0
DWIDTH 11 0
BBX 10 9 1 0
BITMAP
FBC0
7180
7180
3B00
3B00
1E00
1E00
0C00
0C00
ENDCHAR
STARTCHAR w
ENCODING 119
SWIDTH 1667 0
DWIDTH 15 0
BBX 14 9 1 0
BITMAP
FFFC
7398
7398
3FF8
3FF0
1EF0
1EF0
0C60
0C60
ENDCHAR
STARTCHAR x
ENCODING 120
SWIDTH 1111 0
DWIDTH 10 0
BBX 9 9 1 0
BITMAP
FF80
7300
3E00
3C00
1C00
1E00
3E00
6700
FF80
ENDCHAR
STARTCHAR y
ENCODING 121
SWIDTH 846 0
DWIDTH 11 0
BBX 10 13 1 -4
BITMAP
FBC0
7180
7180
3B00
3B00
1E00
1E00
0C00
0C00
1C00
7800
F800
7000
ENDCHAR
STARTCHAR z
ENCODING 122
SWIDTH 1000 0
DWIDTH 9 0
BBX 8 9 1 0
BITMAP
FF
C7
0E
1C
38
70
E0
E3
FF
ENDCHAR
STARTCHAR braceleft
ENCODING 123
SWIDTH 529 0
DWIDTH 9 0
BBX 6 17 2 -4
BITMAP
3C
70
70
70
70
70
70
70
E0
70
70
70
70
70
70
70
3C
ENDCHAR
STARTCHAR bar
ENCODING 124
SWIDTH 313 0
DWIDTH 5 0
BBX 3 16 1 -2
BITMAP
E0
E0
E0
E0
E0
E0
E0
E0
E0
E0
E0
E0
E0
E0
E0
E0
ENDCHAR
STARTCHAR braceright
ENCODING 125
SWIDTH 529 0
DWIDTH 9 0
BBX 6 17 1 -4
BITMAP
F0
38
38
38
38
38
38
38
1C
38
38
38
38
38
38
38
F0
ENDCHAR
STARTCHAR asciitilde
ENCODING 126
SWIDTH 3333 0
DWIDTH 10 0
BBX 8 3 1 11
BITMAP
7B
FF
DE
ENDCHAR
STARTCHAR bullet
ENCODING 149
SWIDTH 1286 0
DWIDTH 9 0
BBX 8 7 1 2
BITMAP
3C
7E
FF
FF
FF
7E
3C
ENDCHAR
STARTCHAR space
ENCODING 154
SWIDTH 263 0
DWIDTH 5 0
BBX 0 0 0 0
BITMAP
ENDCHAR
STARTCHAR degree
ENCODING 156
SWIDTH 1200 0
DWIDTH 6 0
BBX 6 5 0 9
BITMAP
78
FC
CC
FC
78
ENDCHAR
STARTCHAR twosuperior
ENCODING 157
SWIDTH 1000 0
DWIDTH 6 0
BBX 6 6 0 8
BITMAP
78
DC
1C
38
70
FC
ENDCHAR
STARTCHAR periodcentered
ENCODING 158
SWIDTH 3000 0
DWIDTH 6 0
BBX 3 2 2 4
BITMAP
E0
E0
ENDCHAR
STARTCHAR afii10071
ENCODING 163
SWIDTH 667 0
DWIDTH 8 0
BBX 8 12 1 0
BITMAP
7E
7E
00
3C
7E
E7
FF
E0
E0
E3
77
3E
ENDCHAR
STARTCHAR afii10023
ENCODING 179
SWIDTH 688 0
DWIDTH 11 0
BBX 11 16 1 0
BITMAP
7380
7380
0000
FFC0
70C0
7000
7000
7000
7180
7F80
7180
7000
7000
7000
7060
FFC0
ENDCHAR
STARTCHAR copyright
ENCODING 191
SWIDTH 1154 0
DWIDTH 15 0
BBX 14 13 0 0
BITMAP
0FC0
3870
6018
6798
CEEC
DC6C
DC0C
DC6C
CECC
6798
6018
3870
0FC0
ENDCHAR
STARTCHAR afii10096
ENCODING 192
SWIDTH 1667 0
DWIDTH 15 0
BBX 14 9 1 0
BITMAP
F9F0
7338
771C
771C
7F1C
771C
771C
7398
F9F0
ENDCHAR
STARTCHAR afii10065
ENCODING 193
SWIDTH 1111 0
DWIDTH 10 0
BBX 9 9 1 0
BITMAP
7E00
E700
E700
1F00
7700
E700
E700
EF00
7F80
ENDCHAR
STARTCHAR afii10066
ENCODING 194
SWIDTH 846 0
DWIDTH 11 0
BBX 10 13 1 0
BITMAP
0180
3F00
6000
E000
FF00
F380
E1C0
E1C0
E1C0
E1C0
E1C0
7380
3F00
ENDCHAR
STARTCHAR afii10088
ENCODING 195
SWIDTH 1091 0
DWIDTH 12 0
BBX 11 11 1 -2
BITMAP
FBE0
71C0
71C0
71C0
71C0
71C0
71C0
71C0
FFE0
00E0
0060
ENDCHAR
STARTCHAR afii10069
ENCODING 196
SWIDTH 1000 0
DWIDTH 11 0
BBX 10 11 1 -2
BITMAP
7FC0
3380
3380
3380
3380
3380
3380
6380
FFC0
E1C0
C0C0
ENDCHAR
STARTCHAR afii10070
ENCODING 197
SWIDTH 1000 0
DWIDTH 9 0
BBX 8 9 1 0
BITMAP
3C
7E
E7
FF
E0
E0
E3
77
3E
ENDCHAR
STARTCHAR afii10086
ENCODING 198
SWIDTH 813 0
DWIDTH 13 0
BBX 11 16 1 -4
BITMAP
1F00
0E00
0E00
3F80
7FC0
EEE0
EEE0
EEE0
EEE0
EEE0
7FC0
3F80
0E00
0E00
0E00
1F00
ENDCHAR
STARTCHAR afii10068
ENCODING 199
SWIDTH 1000 0
DWIDTH 9 0
BBX 8 9 1 0
BITMAP
FF
73
70
70
70
70
70
70
F8
ENDCHAR
STARTCHAR afii10087
ENCODING 200
SWIDTH 1111 0
DWIDTH 10 0
BBX 9 9 1 0
BITMAP
FF80
7300
3E00
3C00
1C00
1E00
3E00
6700
FF80
ENDCHAR
STARTCHAR afii10074
ENCODING 201
SWIDTH 1333 0
DWIDTH 12 0
BBX 11 9 1 0
BITMAP
F9E0
73C0
77C0
77C0
7DC0
7DC0
79C0
71C0
FBE0
ENDCHAR
STARTCHAR afii10075
ENCODING 202
SWIDTH 1091 0
DWIDTH 12 0
BBX 11 11 1 0
BITMAP
3B80
1F00
F1E0
73C0
77C0
77C0
7DC0
7DC0
79C0
71C0
FBE0
ENDCHAR
STARTCHAR afii10076
ENCODING 203
SWIDTH 1222 0
DWIDTH 11 0
BBX 10 9 1 0
BITMAP
FBC0
77C0
7600
7C00
7C00
7E00
7700
7380
FBC0
ENDCHAR
STARTCHAR afii10077
ENCODING 204
SWIDTH 1333 0
DWIDTH 12 0
BBX 11 9 1 0
BITMAP
3FE0
19C0
19C0
19C0
19C0
19C0
19C0
F9C0
F3E0
ENDCHAR
STARTCHAR afii10078
ENCODING 205
SWIDTH 1444 0
DWIDTH 13 0
BBX 12 9 1 0
BITMAP
F0F0
79E0
79E0
7FE0
7FE0
6EE0
6EE0
60E0
F1F0
ENDCHAR
STARTCHAR afii10079
ENCODING 206
SWIDTH 1333 0
DWIDTH 12 0
BBX 11 9 1 0
BITMAP
FBE0
71C0
71C0
71C0
7FC0
71C0
71C0
71C0
FBE0
ENDCHAR
STARTCHAR afii10080
ENCODING 207
SWIDTH 1111 0
DWIDTH 10 0
BBX 9 9 1 0
BITMAP
3E00
6700
E380
E380
E380
E380
E380
7300
3E00
ENDCHAR
STARTCHAR afii10081
ENCODING 208
SWIDTH 1333 0
DWIDTH 12 0
BBX 11 9 1 0
BITMAP
FFE0
71C0
71C0
71C0
71C0
71C0
71C0
71C0
FBE0
ENDCHAR
STARTCHAR afii10097
ENCODING 209
SWIDTH 1222 0
DWIDTH 11 0
BBX 11 9 0 0
BITMAP
3FE0
71C0
71C0
71C0
3FC0
1DC0
39C0
71C0
E3E0
ENDCHAR
STARTCHAR afii10082
ENCODING 210
SWIDTH 923 0
DWIDTH 12 0
BBX 10 13 1 -4
BITMAP
FF00
7380
71C0
71C0
71C0
71C0
71C0
7380
7F00
7000
7000
7000
F800
ENDCHAR
STARTCHAR afii10083
ENCODING 211
SWIDTH 1000 0
DWIDTH 9 0
BBX 8 9 1 0
BITMAP
3E
77
E7
E0
E0
E0
E3
77
3E
ENDCHAR
STARTCHAR afii10084
ENCODING 212
SWIDTH 1111 0
DWIDTH 10 0
BBX 9 9 1 0
BITMAP
FF80
DD80
DD80
1C00
1C00
1C00
1C00
1C00
3E00
ENDCHAR
STARTCHAR afii10085
ENCODING 213
SWIDTH 846 0
DWIDTH 11 0
BBX 10 13 1 -4
BITMAP
FBC0
7180
7180
3B00
3B00
1E00
1E00
0C00
0C00
1C00
7800
F800
7000
ENDCHAR
STARTCHAR afii10072
ENCODING 214
SWIDTH 1778 0
DWIDTH 16 0
BBX 15 9 1 0
BITMAP
F7DE
FBBE
1BB0
0FE0
0FE0
1FF0
3BB8
739C
FFFE
ENDCHAR
STARTCHAR afii10067
ENCODING 215
SWIDTH 1111 0
DWIDTH 10 0
BBX 9 9 1 0
BITMAP
FF00
7380
7380
7380
7F00
7380
7380
7380
FF00
ENDCHAR
STARTCHAR afii10094
ENCODING 216
SWIDTH 1111 0
DWIDTH 10 0
BBX 9 9 1 0
BITMAP
F800
7000
7000
7F00
7380
7380
7380
7380
FF00
ENDCHAR
STARTCHAR afii10093
ENCODING 217
SWIDTH 1667 0
DWIDTH 15 0
BBX 14 9 1 0
BITMAP
F87C
7038
7038
7F38
73B8
73B8
73B8
73B8
FF7C
ENDCHAR
STARTCHAR afii10073
ENCODING 218
SWIDTH 1000 0
DWIDTH 9 0
BBX 8 9 1 0
BITMAP
7E
C7
C7
07
3E
07
C7
C7
7E
ENDCHAR
STARTCHAR afii10090
ENCODING 219
SWIDTH 1778 0
DWIDTH 16 0
BBX 15 9 1 0
BITMAP
F7FE
739C
739C
739C
739C
739C
739C
739C
FFFE
ENDCHAR
STARTCHAR afii10095
ENCODING 220
SWIDTH 1000 0
DWIDTH 9 0
BBX 8 9 1 0
BITMAP
7E
E7
07
07
7F
07
07
E7
7E
ENDCHAR
STARTCHAR afii10091
ENCODING 221
SWIDTH 1455 0
DWIDTH 16 0
BBX 15 11 1 -2
BITMAP
F7FE
739C
739C
739C
739C
739C
739C
739C
FFFE
000E
0006
ENDCHAR
STARTCHAR afii10089
ENCODING 222
SWIDTH 1333 0
DWIDTH 12 0
BBX 11 9 1 0
BITMAP
FBE0
71C0
71C0
71C0
3FC0
01C0
01C0
01C0
03E0
ENDCHAR
STARTCHAR afii10092
ENCODING 223
SWIDTH 1333 0
DWIDTH 12 0
BBX 11 9 1 0
BITMAP
FE00
DC00
DC00
1FC0
1CE0
1CE0
1CE0
1CE0
3FC0
ENDCHAR
STARTCHAR afii10048
ENCODING 224
SWIDTH 1385 0
DWIDTH 18 0
BBX 17 13 1 0
BITMAP
F87800
71CE00
738700
738700
770380
770380
7F0380
770380
770380
738700
738700
71CE00
F8F800
ENDCHAR
STARTCHAR afii10017
ENCODING 225
SWIDTH 1000 0
DWIDTH 13 0
BBX 13 13 0 0
BITMAP
0600
0700
0F00
0F80
0F80
1B80
19C0
31C0
3FE0
30E0
60E0
6070
F0F8
ENDCHAR
STARTCHAR afii10018
ENCODING 226
SWIDTH 1077 0
DWIDTH 14 0
BBX 12 13 1 0
BITMAP
FFE0
70E0
7060
7000
7000
7FC0
70E0
7070
7070
7070
7070
70E0
FFC0
ENDCHAR
STARTCHAR afii10040
ENCODING 227
SWIDTH 1000 0
DWIDTH 15 0
BBX 13 15 1 -2
BITMAP
F8F8
7070
7070
7070
7070
7070
7070
7070
7070
7070
7070
7070
FFF8
0038
0018
ENDCHAR
STARTCHAR afii10021
ENCODING 228
SWIDTH 933 0
DWIDTH 14 0
BBX 12 15 1 -2
BITMAP
7FF0
30E0
30E0
30E0
30E0
30E0
30E0
30E0
30E0
30E0
30E0
60E0
FFF0
C030
C030
ENDCHAR
STARTCHAR afii10022
ENCODING 229
SWIDTH 1000 0
DWIDTH 13 0
BBX 11 13 1 0
BITMAP
FFC0
70C0
7000
7000
7000
7180
7F80
7180
7000
7000
7000
7060
FFE0
ENDCHAR
STARTCHAR afii10038
ENCODING 230
SWIDTH 1231 0
DWIDTH 16 0
BBX 15 13 1 0
BITMAP
07C0
0380
0FE0
3BB8
739C
E38E
E38E
E38E
739C
3BB8
0FE0
0380
07C0
ENDCHAR
STARTCHAR afii10020
ENCODING 231
SWIDTH 1000 0
DWIDTH 13 0
BBX 11 13 1 0
BITMAP
FFE0
70E0
7060
7000
7000
7000
7000
7000
7000
7000
7000
7000
F800
ENDCHAR
STARTCHAR afii10039
ENCODING 232
SWIDTH 1154 0
DWIDTH 15 0
BBX 13 13 1 0
BITMAP
FCF8
3870
1C60
1EC0
0F80
0780
0780
0F80
0DC0
19E0
30E0
7070
F8F8
ENDCHAR
STARTCHAR afii10026
ENCODING 233
SWIDTH 1154 0
DWIDTH 15 0
BBX 13 13 1 0
BITMAP
F8F8
70F0
71F0
71F0
7370
7370
7670
7670
7C70
7C70
7870
7870
F8F8
ENDCHAR
STARTCHAR afii10027
ENCODING 234
SWIDTH 938 0
DWIDTH 15 0
BBX 13 16 1 0
BITMAP
1DC0
0F80
0700
F8F8
70F0
71F0
71F0
7370
7370
7670
7670
7C70
7C70
7870
7870
F8F8
ENDCHAR
STARTCHAR afii10028
ENCODING 235
SWIDTH 1000 0
DWIDTH 13 0
BBX 11 13 1 0
BITMAP
F9E0
73E0
7300
7600
7600
7C00
7700
7380
7380
71C0
71C0
71C0
FBE0
ENDCHAR
STARTCHAR afii10029
ENCODING 236
SWIDTH 1077 0
DWIDTH 14 0
BBX 13 13 0 0
BITMAP
3FF8
1C70
1C70
1C70
1C70
1C70
1C70
1C70
1C70
1C70
FC70
FC70
78F8
ENDCHAR
STARTCHAR afii10030
ENCODING 237
SWIDTH 1308 0
DWIDTH 17 0
BBX 15 13 1 0
BITMAP
F83E
783C
7C7C
7C7C
7C7C
6EDC
6EDC
6EDC
679C
679C
679C
631C
F33E
ENDCHAR
STARTCHAR afii10031
ENCODING 238
SWIDTH 1154 0
DWIDTH 15 0
BBX 13 13 1 0
BITMAP
F8F8
7070
7070
7070
7070
7070
7FF0
7070
7070
7070
7070
7070
F8F8
ENDCHAR
STARTCHAR afii10032
ENCODING 239
SWIDTH 1154 0
DWIDTH 15 0
BBX 13 13 1 0
BITMAP
0F80
38E0
7070
7070
E038
E038
E038
E038
E038
7070
7070
38E0
0F80
ENDCHAR
STARTCHAR afii10033
ENCODING 240
SWIDTH 1154 0
DWIDTH 15 0
BBX 13 13 1 0
BITMAP
FFF8
7070
7070
7070
7070
7070
7070
7070
7070
7070
7070
7070
F8F8
ENDCHAR
STARTCHAR afii10049
ENCODING 241
SWIDTH 1231 0
DWIDTH 16 0
BBX 15 13 0 0
BITMAP
07FE
0E1C
1C1C
1C1C
1C1C
0E1C
07FC
039C
071C
0E1C
1C1C
381C
F83E
ENDCHAR
STARTCHAR afii10034
ENCODING 242
SWIDTH 1077 0
DWIDTH 14 0
BBX 12 13 1 0
BITMAP
FF80
70E0
7070
7070
7070
7070
70E0
7F80
7000
7000
7000
7000
F800
ENDCHAR
STARTCHAR afii10035
ENCODING 243
SWIDTH 1000 0
DWIDTH 13 0
BBX 12 13 1 0
BITMAP
0FE0
3CE0
7060
7000
E000
E000
E000
E000
E000
7000
7030
3CE0
0F80
ENDCHAR
STARTCHAR afii10036
ENCODING 244
SWIDTH 1000 0
DWIDTH 13 0
BBX 11 13 1 0
BITMAP
FFE0
CE60
0E00
0E00
0E00
0E00
0E00
0E00
0E00
0E00
0E00
0E00
1F00
ENDCHAR
STARTCHAR afii10037
ENCODING 245
SWIDTH 1000 0
DWIDTH 13 0
BBX 13 13 0 0
BITMAP
F878
7030
3860
3860
1CC0
0EC0
0F80
0780
0300
0300
0600
7E00
3C00
ENDCHAR
STARTCHAR afii10024
ENCODING 246
SWIDTH 1385 0
DWIDTH 18 0
BBX 17 13 1 0
BITMAP
F3E780
F9CF80
19CC00
0DD800
0DD800
07F000
1DDC00
39CE00
39CE00
71C700
71C700
71C700
FBEF80
ENDCHAR
STARTCHAR afii10019
ENCODING 247
SWIDTH 1077 0
DWIDTH 14 0
BBX 12 13 1 0
BITMAP
FF80
71C0
70E0
70E0
70E0
71C0
7FC0
70E0
7070
7070
7070
70E0
FFC0
ENDCHAR
STARTCHAR afii10046
ENCODING 248
SWIDTH 1077 0
DWIDTH 14 0
BBX 12 13 1 0
BITMAP
F800
7000
7000
7000
7000
7FC0
70E0
7070
7070
7070
7070
70E0
FFC0
ENDCHAR
STARTCHAR afii10045
ENCODING 249
SWIDTH 1385 0
DWIDTH 18 0
BBX 16 13 1 0
BITMAP
F81F
700E
700E
700E
700E
7FCE
70EE
707E
707E
707E
707E
70EE
FFDF
ENDCHAR
STARTCHAR afii10025
ENCODING 250
SWIDTH 1000 0
DWIDTH 13 0
BBX 11 13 1 0
BITMAP
3E00
E380
C1C0
01C0
01C0
0380
1F80
01C0
00E0
00E0
C0E0
E1C0
3F00
ENDCHAR
STARTCHAR afii10042
ENCODING 251
SWIDTH 1385 0
DWIDTH 18 0
BBX 17 13 1 0
BITMAP
FBEF80
71C700
71C700
71C700
71C700
71C700
71C700
71C700
71C700
71C700
71C700
71C700
FFFF80
ENDCHAR
STARTCHAR afii10047
ENCODING 252
SWIDTH 1000 0
DWIDTH 13 0
BBX 11 13 1 0
BITMAP
FF80
E1C0
C0E0
00E0
00E0
18E0
1FE0
18E0
00E0
00E0
C0E0
E1C0
FF80
ENDCHAR
STARTCHAR afii10043
ENCODING 253
SWIDTH 1200 0
DWIDTH 18 0
BBX 17 15 1 -2
BITMAP
FBEF80
71C700
71C700
71C700
71C700
71C700
71C700
71C700
71C700
71C700
71C700
71C700
FFFF80
000380
000180
ENDCHAR
STARTCHAR afii10041
ENCODING 254
SWIDTH 1154 0
DWIDTH 15 0
BBX 13 13 1 0
BITMAP
F8F8
7070
7070
7070
7070
7070
7070
3FF0
0070
0070
0070
0070
00F8
ENDCHAR
STARTCHAR afii10044
ENCODING 255
SWIDTH 1231 0
DWIDTH 16 0
BBX 14 13 1 0
BITMAP
FE00
DC00
DC00
1C00
1C00
1FF0
1C38
1C1C
1C1C
1C1C
1C1C
1C38
3FF0
ENDCHAR
ENDFONT
